<?xml version="1.0" standalone="no"?><!DOCTYPE svg PUBLIC "-//W3C//DTD SVG 1.1//EN" "http://www.w3.org/Graphics/SVG/1.1/DTD/svg11.dtd"><svg t="1580957882275" class="icon" viewBox="0 0 1025 1024" version="1.1" xmlns="http://www.w3.org/2000/svg" p-id="952" xmlns:xlink="http://www.w3.org/1999/xlink" width="32.03125" height="32"><defs><style type="text/css"></style></defs><path d="M512.963765 0c-282.322824 0-512 229.677176-512 512s229.677176 512 512 512 512-229.677176 512-512-229.737412-512-512-512zM62.704941 542.117647l176.911059 0c2.650353 61.680941 12.709647 122.337882 30.900706 180.705882l-156.792471 0c-28.973176-54.573176-46.742588-115.832471-51.019294-180.705882zM239.616 481.882353l-176.911059 0c4.276706-64.873412 22.046118-126.132706 51.019294-180.705882l156.611765 0c-18.130824 58.368-28.129882 119.024941-30.72 180.705882zM334.125176 301.176471l355.147294 0c19.877647 58.127059 31.442824 118.784 34.273882 180.705882l-423.695059 0c2.770824-61.921882 14.396235-122.578824 34.273882-180.705882zM299.851294 542.117647l423.755294 0c-2.951529 61.921882-14.516706 122.578824-34.454588 180.705882l-354.846118 0c-19.937882-58.127059-31.563294-118.784-34.454588-180.705882zM783.841882 542.117647l179.380706 0c-4.276706 64.873412-22.046118 126.132706-51.019294 180.705882l-159.262118 0c18.191059-58.368 28.250353-119.024941 30.900706-180.705882zM783.841882 481.882353c-2.590118-61.680941-12.589176-122.337882-30.72-180.705882l159.081412 0c28.912941 54.573176 46.682353 115.832471 51.019294 180.705882l-179.380706 0zM873.532235 240.941176l-141.793882 0c-23.612235-57.524706-55.175529-111.917176-93.364706-162.635294 95.051294 27.527529 176.971294 85.534118 235.158588 162.635294zM546.575059 61.921882c49.633882 54.031059 89.389176 114.447059 118.784 179.019294l-307.320471 0c29.334588-64.512 69.029647-124.867765 118.663529-178.898824 11.986824-0.903529 23.973647-1.807059 36.261647-1.807059 11.324235 0 22.467765 0.903529 33.611294 1.686588zM384.481882 79.088941c-37.888 50.477176-69.330824 104.628706-92.762353 161.852235l-139.384471 0c57.524706-76.318118 138.360471-133.963294 232.146824-161.852235zM152.335059 783.058824l139.565176 0c23.552 57.283765 55.115294 111.495529 93.184 161.972706-94.027294-27.768471-175.104-85.473882-232.749176-161.972706zM477.424941 961.957647c-49.754353-54.031059-89.630118-114.386824-119.145412-178.898824l306.838588 0c-29.515294 64.572235-69.391059 124.988235-119.205647 179.019294-10.902588 0.783059-21.865412 1.686588-32.948706 1.686588-12.047059 0-23.792941-0.903529-35.538824-1.807059zM637.711059 945.874824c38.309647-50.718118 70.113882-105.231059 93.786353-162.816l142.034824 0c-58.307765 77.281882-140.468706 135.348706-235.821176 162.816z" p-id="953"></path></svg>